<mxfile host="app.diagrams.net" modified="2023-09-08T21:50:23.609Z" agent="Mozilla/5.0 (Macintosh; Intel Mac OS X 10_15_7) AppleWebKit/537.36 (KHTML, like Gecko) Chrome/116.0.0.0 Safari/537.36" etag="kZ0bjaKcmtWDhPYVGejU" version="21.7.4" type="github">
  <diagram name="ページ1" id="Ho0fddflVT8W4SZ6_ch8">
    <mxGraphModel dx="1624" dy="1030" grid="0" gridSize="10" guides="1" tooltips="1" connect="1" arrows="1" fold="1" page="0" pageScale="1" pageWidth="827" pageHeight="1169" math="0" shadow="0">
      <root>
        <mxCell id="0" />
        <mxCell id="1" parent="0" />
        <mxCell id="paZ5s91y581L9r0_0L5e-1" value="" style="ellipse;whiteSpace=wrap;html=1;" parent="1" vertex="1">
          <mxGeometry x="-293" y="-6" width="120" height="80" as="geometry" />
        </mxCell>
        <mxCell id="paZ5s91y581L9r0_0L5e-2" value="" style="ellipse;whiteSpace=wrap;html=1;" parent="1" vertex="1">
          <mxGeometry x="63" y="-4" width="120" height="80" as="geometry" />
        </mxCell>
        <mxCell id="paZ5s91y581L9r0_0L5e-3" value="" style="ellipse;whiteSpace=wrap;html=1;" parent="1" vertex="1">
          <mxGeometry x="-103" y="-1" width="120" height="80" as="geometry" />
        </mxCell>
      </root>
    </mxGraphModel>
  </diagram>
</mxfile>
